HIERARCHY
ROOT reference
{
  OFFSET 0 0 0
  CHANNELS 6 Xposition Yposition Zposition Zrotation Xrotation Yrotation
  JOINT root
  {
    OFFSET 0 88.8689 0
    CHANNELS 6 Xposition Yposition Zposition Zrotation Xrotation Yrotation
    JOINT Hips
    {
      OFFSET 0 0 0
      CHANNELS 6 Xposition Yposition Zposition Zrotation Xrotation Yrotation
      JOINT Spine
      {
        OFFSET -0.01531 -0.106941 -0.009988
        CHANNELS 6 Xposition Yposition Zposition Zrotation Xrotation Yrotation
        JOINT Spine1
        {
          OFFSET 4.53759 17.4172 4.5334
          CHANNELS 6 Xposition Yposition Zposition Zrotation Xrotation Yrotation
          JOINT Spine2
          {
            OFFSET 5.11076 16.6965 6.29971
            CHANNELS 6 Xposition Yposition Zposition Zrotation Xrotation Yrotation
            JOINT Neck
            {
              OFFSET 8.03575 14.4553 8.42519
              CHANNELS 6 Xposition Yposition Zposition Zrotation Xrotation Yrotation
              JOINT Head
              {
                OFFSET 5.47211 7.67801 6.64042
                CHANNELS 6 Xposition Yposition Zposition Zrotation Xrotation Yrotation
                End Site
                {
                  OFFSET 0 0 0
                }
              }
            }
            JOINT RightShoulder
            {
              OFFSET 6.33563 13.5896 11.5279
              CHANNELS 6 Xposition Yposition Zposition Zrotation Xrotation Yrotation
              JOINT RightArm
              {
                OFFSET -6.26181 -6.12465 13.4865
                CHANNELS 6 Xposition Yposition Zposition Zrotation Xrotation Yrotation
                JOINT RightForearm
                {
                  OFFSET 3.58636 -13.984 25.6174
                  CHANNELS 6 Xposition Yposition Zposition Zrotation Xrotation Yrotation
                  JOINT RightHand
                  {
                    OFFSET 15.6659 -2.198 19.2652
                    CHANNELS 6 Xposition Yposition Zposition Zrotation Xrotation Yrotation
                    End Site
                    {
                      OFFSET 0 0 0
                    }
                  }
                }
              }
            }
            JOINT LeftShoulder
            {
              OFFSET 9.74583 15.3075 5.32994
              CHANNELS 6 Xposition Yposition Zposition Zrotation Xrotation Yrotation
              JOINT LeftArm
              {
                OFFSET 6.68129 3.33466 -14.2424
                CHANNELS 6 Xposition Yposition Zposition Zrotation Xrotation Yrotation
                JOINT LeftForearm
                {
                  OFFSET -8.20651 -13.2257 -24.9479
                  CHANNELS 6 Xposition Yposition Zposition Zrotation Xrotation Yrotation
                  JOINT LeftHand
                  {
                    OFFSET 15.6207 -17.9962 7.31658
                    CHANNELS 6 Xposition Yposition Zposition Zrotation Xrotation Yrotation
                    End Site
                    {
                      OFFSET 0 0 0
                    }
                  }
                }
              }
            }
          }
        }
      }
      JOINT RightUpLeg
      {
        OFFSET -4.70932 -0.432344 8.30629
        CHANNELS 6 Xposition Yposition Zposition Zrotation Xrotation Yrotation
        JOINT RightLeg
        {
          OFFSET 9.66163 -41.1966 15.3849
          CHANNELS 6 Xposition Yposition Zposition Zrotation Xrotation Yrotation
          JOINT RightFoot
          {
            OFFSET -6.29416 -39.3903 -10.2157
            CHANNELS 6 Xposition Yposition Zposition Zrotation Xrotation Yrotation
            JOINT RightToe
            {
              OFFSET 7.78621 -6.8796 14.7032
              CHANNELS 6 Xposition Yposition Zposition Zrotation Xrotation Yrotation
              End Site
              {
                OFFSET 0 0 0
              }
            }
          }
        }
      }
      JOINT LeftUpLeg
      {
        OFFSET 4.70932 0.432346 -8.30628
        CHANNELS 6 Xposition Yposition Zposition Zrotation Xrotation Yrotation
        JOINT LeftLeg
        {
          OFFSET 14.159 -39.629 -16.0084
          CHANNELS 6 Xposition Yposition Zposition Zrotation Xrotation Yrotation
          JOINT LeftFoot
          {
            OFFSET -7.74959 -36.5456 -17.3187
            CHANNELS 6 Xposition Yposition Zposition Zrotation Xrotation Yrotation
            JOINT LeftToe
            {
              OFFSET 11.9614 -12.8184 -4.09306
              CHANNELS 6 Xposition Yposition Zposition Zrotation Xrotation Yrotation
              End Site
              {
                OFFSET 0 0 0
              }
            }
          }
        }
      }
    }
  }
}
MOTION
Frames:	6
Frame Time:	0.0333333
0 0 0 0 0 -0 0 88.8689 -5e-06 2e-06 -3.49066e-14 -1e-06 1e-06 8e-06 1e-06 -1e-06 -2e-06 -3e-06 -0.01531 -0.106941 -0.009988 2e-06 2.0944e-13 6e-06 4.53759 17.4172 4.5334 -0.00818427 -2e-06 0.000486535 5.11076 16.6965 6.29971 -0.00482215 1.5708e-13 0.00311321 8.03575 14.4553 8.42519 -0.00548668 1e-06 5e-06 5.47211 7.67801 6.64042 6e-06 8e-06 8e-06 6.33563 13.5896 11.5279 -2e-06 3e-06 -3e-06 -6.26181 -6.12465 13.4865 4e-06 -4e-06 -1e-06 3.58636 -13.984 25.6174 -2e-06 2e-06 -6e-06 15.6659 -2.198 19.2652 -4e-06 -1e-06 -3e-06 9.74583 15.3075 5.32994 -3e-06 -6e-06 9e-06 6.68129 3.33466 -14.2424 -3e-06 -1.0472e-13 2e-06 -8.20651 -13.2257 -24.9479 2e-06 -3e-06 3e-06 15.6207 -17.9962 7.31658 1.62819e-18 2e-06 -2e-06 -4.70932 -0.432344 8.30629 1.38889e-20 9e-06 -2e-06 9.66163 -41.1966 15.3849 1.58012e-12 -1e-06 8.75345e-05 -6.29416 -39.3903 -10.2157 1e-06 1e-06 3e-06 7.78621 -6.8796 14.7032 -1.13837e-07 -0.00172099 -0.00378987 4.70932 0.432346 -8.30628 5e-06 1.6e-05 7e-06 14.159 -39.629 -16.0084 -3e-06 -5.23599e-14 1e-06 -7.74959 -36.5456 -17.3187 -2e-06 -2e-06 -1e-06 11.9614 -12.8184 -4.09306 2e-06 1e-06 1e-06 
0.399419 0 1.89183 0 0 -0 -0.355878 88.9815 0.148947 0.170317 0.346427 0.0468904 1e-06 8e-06 1e-06 -0.146296 -0.264274 0.0638974 -0.01531 -0.106941 -0.009988 -0.015636 -0.0330703 -0.068404 4.53759 17.4172 4.5334 -0.008184 -0.0312611 0.000486535 5.11076 16.6965 6.29971 -0.004821 -0.0212303 0.00311321 8.03575 14.4553 8.42519 -0.00546729 0.0280523 -0.0395932 5.47211 7.67801 6.64042 0.03533 0.0388283 -0.072546 6.33563 13.5896 11.5279 0.038671 0.0727039 0.0264499 -6.26181 -6.12465 13.4865 -0.029672 -0.022031 0.0869826 3.58636 -13.984 25.6174 -0.050113 0.05065 -0.0788867 15.6659 -2.198 19.2652 0.070856 0.0273482 -0.0491929 9.74583 15.3075 5.32994 0.039562 0.0621769 0.0258651 6.68129 3.33466 -14.2424 -0.424564 -0.240167 -0.113808 -8.20651 -13.2257 -24.9479 0.0852621 -0.131529 -0.0793174 15.6207 -17.9962 7.31658 0.0277339 0.0718179 -0.155112 -4.70932 -0.432344 8.30629 -0.151978 1.34307 -0.165166 9.66163 -41.1966 15.3849 0.0771177 -0.123759 8.75347e-05 -6.29416 -39.3903 -10.2157 0.627011 -0.94069 0.0662647 7.78621 -6.8796 14.7032 -0.00303511 -0.00172099 -0.00378987 4.70932 0.432346 -8.30628 1.34059 -0.247484 -2.29642 14.159 -39.629 -16.0084 -2.93437 0.326232 1.32104 -7.74959 -36.5456 -17.3187 -0.475985 0.782864 0.414272 11.9614 -12.8184 -4.09306 -1.16372 -1.5566 -0.0827787 
0.775506 0 3.77305 0 0 -0 -0.64191 89.0998 0.109698 0.3575 0.734073 -0.0586183 1e-06 8e-06 1e-06 -0.287795 -0.520535 0.125127 -0.01531 -0.106941 -0.009988 -0.01918 -0.0753486 -0.135627 4.53759 17.4172 4.5334 2.2e-05 -0.075631 -0.00160397 5.11076 16.6965 6.29971 0.001379 -0.0512679 0.00391223 8.03575 14.4553 8.42519 -0.00548 0.0342371 -0.0111737 5.47211 7.67801 6.64042 0.020706 0.0604869 -0.0224749 6.33563 13.5896 11.5279 0.0434829 0.00781726 0.112343 -6.26181 -6.12465 13.4865 -0.031009 0.161113 0.168651 3.58636 -13.984 25.6174 -0.025324 0.0255746 -0.0398577 15.6659 -2.198 19.2652 0.056789 -0.0193497 -0.0733279 9.74583 15.3075 5.32994 0.0613739 0.0551104 0.111469 6.68129 3.33466 -14.2424 -0.888824 -0.365549 -0.123287 -8.20651 -13.2257 -24.9479 0.121415 -0.18744 -0.112962 15.6207 -17.9962 7.31658 0.0754825 0.246423 -0.436182 -4.70932 -0.432344 8.30629 -0.395355 2.59076 -0.207936 9.66163 -41.1966 15.3849 0.237474 -0.381101 8.75364e-05 -6.29416 -39.3903 -10.2157 1.00499 -1.89083 0.202179 7.78621 -6.8796 14.7032 -0.0121214 -0.00687991 -0.00378987 4.70932 0.432346 -8.30628 2.49258 -1.34684 -4.77655 14.159 -39.629 -16.0084 -6.60147 0.637356 2.98834 -7.74959 -36.5456 -17.3187 2.08125 -0.108543 -1.72935 11.9614 -12.8184 -4.09306 -4.51852 -0.688066 -0.34425 
1.17589 0 5.66913 0 0 -0 -0.871195 89.2714 -0.100708 0.508527 1.08859 -0.213418 1e-06 8e-06 1e-06 -0.407885 -0.738501 0.176478 -0.01531 -0.106941 -0.009988 -0.0231729 -0.0974009 -0.178406 4.53759 17.4172 4.5334 0.00739801 -0.0922592 0.0139099 5.11076 16.6965 6.29971 0.00807 -0.0614009 0.0147666 8.03575 14.4553 8.42519 -0.0017 0.0369737 0.0103761 5.47211 7.67801 6.64042 0.024772 0.0671741 0.018717 6.33563 13.5896 11.5279 0.0509537 -0.0535742 0.201113 -6.26181 -6.12465 13.4865 -0.0635846 0.326212 0.19937 3.58636 -13.984 25.6174 0.033249 -0.0335047 0.0522745 15.6659 -2.198 19.2652 0.004647 -0.0858074 -0.079415 9.74583 15.3075 5.32994 0.0959284 0.063272 0.213783 6.68129 3.33466 -14.2424 -1.29414 -0.528612 -0.121509 -8.20651 -13.2257 -24.9479 0.0668751 -0.103144 -0.0622277 15.6207 -17.9962 7.31658 0.0895077 0.347244 -0.604643 -4.70932 -0.432344 8.30629 -0.697052 3.82357 -0.180711 9.66163 -41.1966 15.3849 0.518749 -0.832452 0.00225664 -6.29416 -39.3903 -10.2157 1.04779 -2.7979 0.318598 7.78621 -6.8796 14.7032 -0.0272148 -0.0154526 -0.00378987 4.70932 0.432346 -8.30628 4.39344 -3.54954 -4.65783 14.159 -39.629 -16.0084 -10.1318 0.83514 4.60584 -7.74959 -36.5456 -17.3187 5.88512 -0.689636 -3.51113 11.9614 -12.8184 -4.09306 -9.73784 0.77706 -0.263835 
1.67806 0 7.56761 0 0 -0 -1.0517 89.4998 -0.46049 0.607449 1.39291 -0.387016 1e-06 8e-06 1e-06 -0.501847 -0.909402 0.216887 -0.01531 -0.106941 -0.009988 -0.0305299 -0.0972374 -0.196369 4.53759 17.4172 4.5334 0.00923301 -0.0791737 0.0454088 5.11076 16.6965 6.29971 0.011784 -0.0503808 0.0348844 8.03575 14.4553 8.42519 0.019613 0.0363055 0.0130866 5.47211 7.67801 6.64042 0.060469 0.0526908 0.0310594 6.33563 13.5896 11.5279 0.0628733 -0.0940292 0.278724 -6.26181 -6.12465 13.4865 -0.136322 0.439526 0.203007 3.58636 -13.984 25.6174 0.102532 -0.103178 0.161162 15.6659 -2.198 19.2652 -0.0617332 -0.150062 -0.0719497 9.74583 15.3075 5.32994 0.14037 0.0912423 0.315539 6.68129 3.33466 -14.2424 -1.59944 -0.690924 -0.11566 -8.20651 -13.2257 -24.9479 -0.056772 0.0873567 0.0528246 15.6207 -17.9962 7.31658 0.0668213 0.344232 -0.619816 -4.70932 -0.432344 8.30629 -1.03519 5.06666 -0.0321368 9.66163 -41.1966 15.3849 0.920755 -1.47732 0.00918537 -6.29416 -39.3903 -10.2157 0.626349 -3.73804 0.301501 7.78621 -6.8796 14.7032 -0.048244 -0.0273896 -0.00378987 4.70932 0.432346 -8.30628 6.78768 -6.62482 -2.40048 14.159 -39.629 -16.0084 -13.109 0.924132 5.97571 -7.74959 -36.5456 -17.3187 10.4115 -0.806803 -3.83502 11.9614 -12.8184 -4.09306 -15.6437 2.96647 0.309386 
2.83689 0 11.0511 0 0 -0 -1.32472 90.0006 -1.42508 0.702553 1.97714 -0.750525 1e-06 8e-06 1e-06 -0.667564 -1.21144 0.287084 -0.01531 -0.106941 -0.009988 -0.0547077 -0.0895243 -0.216529 4.53759 17.4172 4.5334 -0.001107 -0.0443043 0.118603 5.11076 16.6965 6.29971 0.010492 -0.0219339 0.082653 8.03575 14.4553 8.42519 0.11354 -0.0261331 0.00955481 5.47211 7.67801 6.64042 0.177686 -0.116015 0.0599071 6.33563 13.5896 11.5279 0.0395485 -0.250729 0.386488 -6.26181 -6.12465 13.4865 -0.321222 0.635575 0.382727 3.58636 -13.984 25.6174 0.148004 -0.148732 0.232528 15.6659 -2.198 19.2652 -0.10987 -0.191245 -0.0595948 9.74583 15.3075 5.32994 0.142595 0.0396735 0.410795 6.68129 3.33466 -14.2424 -1.80752 -0.280078 -0.0205014 -8.20651 -13.2257 -24.9479 -0.141105 0.216818 0.131342 15.6207 -17.9962 7.31658 0.0264484 0.207553 -0.444235 -4.70932 -0.432344 8.30629 -1.62921 7.62553 0.479368 9.66163 -41.1966 15.3849 1.92939 -3.09305 0.0464734 -6.29416 -39.3903 -10.2157 -2.28343 -6.33869 -0.230558 7.78621 -6.8796 14.7032 -0.107665 -0.06113 -0.00378988 4.70932 0.432346 -8.30628 11.0207 -13.8815 2.72002 14.159 -39.629 -16.0084 -16.6647 0.937044 7.61434 -7.74959 -36.5456 -17.3187 16.5378 -2.54252 -4.39637 11.9614 -12.8184 -4.09306 -20.9107 11.0276 1.68669 
